<svg version="1.1" viewBox="0.0 0.0 113.38582677165354 113.38582677165354" fill="none" stroke="none" stroke-linecap="square" stroke-miterlimit="10" xmlns:xlink="http://www.w3.org/1999/xlink" xmlns="http://www.w3.org/2000/svg">
<clipPath id="p.0"><path d="m0 0l113.385826 0l0 113.385826l-113.385826 0l0 -113.385826z" clip-rule="nonzero"/></clipPath><g clip-path="url(#p.0)"><path fill="#000000" fill-opacity="0.0" d="m0 0l113.385826 0l0 113.385826l-113.385826 0z" fill-rule="evenodd"/><path fill="#000000" fill-opacity="0.0" d="m-2.3097112 -19.95013l129.6063 0l0 89.98425l-129.6063 0z" fill-rule="evenodd"/><path fill="#67839a" d="m34.487164 33.439243q0 2.296875 -0.640625 4.15625q-0.625 1.859375 -1.734375 3.296875q-1.109375 1.421875 -2.65625 2.453125q-1.546875 1.03125 -3.40625 1.703125q-1.859375 0.65625 -3.96875 0.96875q-2.109375 0.3125 -4.703125 0.3125l-11.421875 0q-1.09375 0 -1.84375 -0.640625q-0.73437476 -0.65625 -0.73437476 -2.109375l0 -37.453125q0 -1.46875 0.73437476 -2.109375q0.75 -0.65624976 1.84375 -0.65624976l10.796875 0q3.953125 0 6.6875 0.67187476q2.75 0.65625 4.625 2.0q1.875 1.34375 2.859375 3.40625q1.0 2.0625 1.0 4.84375q0 1.5625 -0.40625 2.953126q-0.390625 1.375 -1.15625 2.5q-0.765625 1.125 -1.875 2.0q-1.109375 0.859375 -2.53125 1.390625q1.828125 0.328125 3.359375 1.15625q1.546875 0.828125 2.6875 2.140625q1.15625 1.3125 1.8125 3.078125q0.671875 1.75 0.671875 3.9375zm-11.296875 -18.09375q0 -1.296875 -0.40625 -2.3125q-0.390625 -1.03125 -1.1875 -1.703125q-0.796875 -0.6875 -2.015625 -1.046875q-1.203125 -0.375 -3.21875 -0.375l-4.421875 0l0 11.156251l4.875 0q1.890625 0 3.015625 -0.453125q1.140625 -0.453125 1.890625 -1.21875q0.75 -0.78125 1.109375 -1.828125q0.359375 -1.046875 0.359375 -2.218751zm2.234375 18.40625q0 -1.5 -0.5 -2.671875q-0.5 -1.1875 -1.46875 -1.984375q-0.953125 -0.796875 -2.453125 -1.21875q-1.5 -0.4375 -3.890625 -0.4375l-5.171875 0l0 12.21875l6.3125 0q1.828125 0 3.0625 -0.375q1.25 -0.390625 2.15625 -1.140625q0.921875 -0.75 1.4375 -1.859375q0.515625 -1.109375 0.515625 -2.53125zm24.835938 11.375q0 0.34375 -0.21875 0.609375q-0.21875 0.265625 -0.71875 0.4375q-0.5 0.15625 -1.328125 0.25q-0.828125 0.109375 -2.125 0.109375q-1.265625 0 -2.109375 -0.109375q-0.84375 -0.09375 -1.34375 -0.25q-0.5 -0.171875 -0.71875 -0.4375q-0.203125 -0.265625 -0.203125 -0.609375l0 -40.5625q0 -0.34375 0.203125 -0.60937476q0.21875 -0.265625 0.734375 -0.421875q0.515625 -0.171875 1.34375 -0.265625q0.828125 -0.109375 2.09375 -0.109375q1.296875 0 2.125 0.109375q0.828125 0.09375 1.328125 0.265625q0.5 0.15625 0.71875 0.421875q0.21875 0.26562476 0.21875 0.60937476l0 40.5625zm59.425785 0q0 0.34375 -0.1875 0.609375q-0.171875 0.265625 -0.65625 0.4375q-0.484375 0.15625 -1.28125 0.25q-0.796875 0.109375 -2.015625 0.109375q-1.203125 0 -2.0 -0.109375q-0.796875 -0.09375 -1.265625 -0.25q-0.453125 -0.171875 -0.65625 -0.4375q-0.203125 -0.265625 -0.203125 -0.609375l0 -34.953125l-0.0625 0l-12.453125 34.921875q-0.140625 0.4375 -0.4375 0.71875q-0.296875 0.28125 -0.8125 0.453125q-0.515625 0.15625 -1.3125 0.203125q-0.796875 0.0625 -1.921875 0.0625q-1.125 0 -1.921875 -0.09375q-0.796875 -0.078125 -1.3125 -0.25q-0.515625 -0.1875 -0.8125 -0.453125q-0.296875 -0.265625 -0.40625 -0.640625l-12.015625 -34.921875l-0.0625 0l0 34.953125q0 0.34375 -0.1875 0.609375q-0.1875 0.265625 -0.6875 0.4375q-0.484375 0.15625 -1.265625 0.25q-0.78125 0.109375 -2.0156288 0.109375q-1.1875 0 -1.984375 -0.109375q-0.796875 -0.09375 -1.28125 -0.25q-0.484375 -0.171875 -0.671875 -0.4375q-0.171875 -0.265625 -0.171875 -0.609375l0 -38.28125q0 -1.6875 0.890625 -2.578125q0.890625 -0.90624976 2.390625 -0.90624976l5.718754 0q1.515625 0 2.609375 0.25q1.109375 0.25 1.90625 0.82812476q0.796875 0.578125 1.328125 1.53125q0.53125 0.953125 0.921875 2.34375l9.296875 25.59375l0.140625 0l9.625 -25.53125q0.421875 -1.390625 0.9375 -2.34375q0.515625 -0.96875 1.1875 -1.5625q0.6875 -0.60937476 1.609375 -0.85937476q0.9375 -0.25 2.171875 -0.25l5.875 0q0.90625 0 1.546875 0.234375q0.640625 0.234375 1.0625 0.68749976q0.421875 0.4375 0.625 1.09375q0.21875 0.640625 0.21875 1.46875l0 38.28125z" fill-rule="nonzero"/><path fill="#000000" fill-opacity="0.0" d="m1.0603653 42.383102l122.86614 0l0 58.897636l-122.86614 0z" fill-rule="evenodd"/><path fill="#5e9a2d" d="m18.404116 83.38998q-0.09375 0.34375 -0.265625 0.5625q-0.171875 0.21875 -0.546875 0.34375q-0.375 0.109375 -1.015625 0.140625q-0.640625 0.03125 -1.6875 0.03125q-0.828125 0 -1.421875 -0.015625q-0.59375 0 -1.015625 -0.046875q-0.40625 -0.046875 -0.671875 -0.125q-0.265625 -0.078125 -0.4375 -0.203125q-0.171875 -0.125 -0.265625 -0.296875q-0.09375 -0.1875 -0.1875 -0.453125l-8.015625 -23.890625q-0.25 -0.75 -0.3125 -1.1875q-0.046875 -0.4375 0.21875 -0.65625q0.265625 -0.21875 0.890625 -0.265625q0.62499976 -0.0625 1.7499998 -0.0625q0.953125 0 1.484375 0.046875q0.546875 0.03125 0.84375 0.140625q0.29687548 0.109375 0.40625048 0.3125q0.109375 0.203125 0.21875 0.515625l6.5625 20.796875l0.015625 0l6.4375 -20.6875q0.078125 -0.359375 0.203125 -0.578125q0.125 -0.21875 0.421875 -0.34375q0.3125 -0.125 0.875 -0.15625q0.5625 -0.046875 1.546875 -0.046875q0.953125 0 1.484375 0.0625q0.53125 0.0625 0.71875 0.3125q0.203125 0.234375 0.125 0.671875q-0.0625 0.4375 -0.3125 1.15625l-8.046875 23.921875zm16.754255 0.25q0 0.203125 -0.125 0.359375q-0.125 0.15625 -0.4375 0.265625q-0.296875 0.09375 -0.796875 0.140625q-0.5 0.0625 -1.265625 0.0625q-0.7656231 0 -1.2656231 -0.0625q-0.5 -0.046875 -0.8125 -0.140625q-0.296875 -0.109375 -0.421875 -0.265625q-0.125 -0.15625 -0.125 -0.359375l0 -18.546875q0 -0.203125 0.125 -0.359375q0.125 -0.15625 0.421875 -0.265625q0.3125 -0.125 0.8125 -0.1875q0.5 -0.0625 1.2656231 -0.0625q0.765625 0 1.265625 0.0625q0.5 0.0625 0.796875 0.1875q0.3125 0.109375 0.4375 0.265625q0.125 0.15625 0.125 0.359375l0 18.546875zm0.390625 -24.875q0 1.578125 -0.640625 2.1875q-0.640625 0.609375 -2.390625 0.609375q-1.7812481 0 -2.390623 -0.578125q-0.609375 -0.59375 -0.609375 -2.109375q0 -1.59375 0.625 -2.203125q0.640625 -0.609375 2.406248 -0.609375q1.75 0 2.375 0.59375q0.625 0.59375 0.625 2.109375zm21.992233 15.03125q0 0.96875 -0.421875 1.421875q-0.421875 0.453125 -1.171875 0.453125l-11.3125 0q0 1.1875 0.28125 2.15625q0.28125 0.96875 0.890625 1.65625q0.625 0.671875 1.59375 1.03125q0.96875 0.34375 2.3125 0.34375q1.375 0 2.40625 -0.1875q1.046875 -0.203125 1.8125 -0.4375q0.765625 -0.25 1.265625 -0.4375q0.5 -0.203125 0.8125 -0.203125q0.1875 0 0.3125 0.078125q0.125 0.0625 0.203125 0.25q0.078125 0.1875 0.109375 0.53125q0.03125 0.34375 0.03125 0.875q0 0.453125 -0.015625 0.78125q-0.015625 0.3125 -0.0625 0.546875q-0.046875 0.234375 -0.125 0.390625q-0.078125 0.15625 -0.21875 0.296875q-0.140625 0.140625 -0.75 0.390625q-0.59375 0.25 -1.53125 0.5q-0.9375 0.234375 -2.15625 0.40625q-1.203125 0.1875 -2.578125 0.1875q-2.46875 0 -4.34375 -0.625q-1.859375 -0.625 -3.109375 -1.890625q-1.25 -1.28125 -1.859375 -3.21875q-0.609375 -1.9375 -0.609375 -4.546875q0 -2.46875 0.640625 -4.453125q0.640625 -2.0 1.875 -3.375q1.234375 -1.390625 2.984375 -2.109375q1.765625 -0.734375 3.96875 -0.734375q2.328125 0 3.984375 0.6875q1.65625 0.6875 2.71875 1.90625q1.0625 1.21875 1.5625 2.890625q0.5 1.65625 0.5 3.609375l0 0.828125zm-5.078125 -1.484375q0.0625 -2.21875 -0.890625 -3.46875q-0.9375 -1.265625 -2.921875 -1.265625q-1.0 0 -1.734375 0.375q-0.734375 0.375 -1.234375 1.015625q-0.484375 0.625 -0.75 1.5q-0.25 0.859375 -0.296875 1.84375l7.828125 0zm37.62497 -7.296875q0 0.234375 -0.0625 0.5625q-0.0625 0.328125 -0.234375 0.953125l-4.953125 16.8125q-0.109375 0.359375 -0.28125 0.578125q-0.15625 0.21875 -0.5 0.34375q-0.34375 0.125 -0.984375 0.15625q-0.640625 0.046875 -1.65625 0.046875q-1.015625 0 -1.671875 -0.0625q-0.640625 -0.046875 -1.015625 -0.171875q-0.359375 -0.125 -0.53125 -0.34375q-0.15625 -0.21875 -0.234375 -0.546875l-3.125 -11.28125l-0.046875 -0.1875l-0.046875 0.1875l-2.875 11.28125q-0.078125 0.359375 -0.234375 0.578125q-0.15625 0.21875 -0.53125 0.34375q-0.375 0.125 -1.015625 0.15625q-0.640625 0.046875 -1.671875 0.046875q-1.03125 0 -1.671875 -0.0625q-0.640625 -0.046875 -1.0 -0.171875q-0.359375 -0.125 -0.53125 -0.34375q-0.171875 -0.21875 -0.25 -0.546875l-4.921875 -16.8125q-0.1875 -0.59375 -0.234375 -0.9375q-0.046875 -0.34375 -0.046875 -0.578125q0 -0.203125 0.109375 -0.359375q0.109375 -0.15625 0.40625 -0.25q0.3125 -0.09375 0.8125 -0.140625q0.515625 -0.046875 1.296875 -0.046875q0.828125 0 1.34375 0.046875q0.53125 0.046875 0.8125 0.15625q0.296875 0.09375 0.40625 0.28125q0.125 0.171875 0.1875 0.421875l3.6875 13.640625l0.03125 0.25l0.046875 -0.25l3.453125 -13.640625q0.0625 -0.25 0.1875 -0.421875q0.140625 -0.1875 0.40625 -0.28125q0.28125 -0.109375 0.765625 -0.15625q0.5 -0.046875 1.265625 -0.046875q0.765625 0 1.25 0.0625q0.484375 0.046875 0.765625 0.140625q0.28125 0.09375 0.390625 0.25q0.109375 0.15625 0.171875 0.359375l3.71875 13.75l0.0625 0.234375l0.03125 -0.25l3.546875 -13.640625q0.046875 -0.25 0.171875 -0.421875q0.125 -0.1875 0.40625 -0.28125q0.296875 -0.109375 0.796875 -0.15625q0.5 -0.046875 1.265625 -0.046875q0.78125 0 1.265625 0.046875q0.484375 0.046875 0.765625 0.140625q0.28125 0.09375 0.390625 0.25q0.109375 0.15625 0.109375 0.359375z" fill-rule="nonzero"/><path fill="#67839a" d="m110.96573 72.37435q0 0.578125 -0.0625 0.96875q-0.0625 0.390625 -0.1875 0.640625q-0.125 0.234375 -0.296875 0.34375q-0.15625 0.09375 -0.34375 0.09375l-6.484375 0l0 7.0625q0 0.21875 -0.109375 0.375q-0.09375 0.15625 -0.34375 0.265625q-0.25 0.109375 -0.671875 0.171875q-0.40625 0.0625 -1.03125 0.0625q-0.625 0 -1.046875 -0.0625q-0.40625 -0.0625 -0.65625 -0.171875q-0.25 -0.109375 -0.375 -0.265625q-0.109375 -0.15625 -0.109375 -0.375l0 -7.0625l-6.453125 0q-0.1875 0 -0.34375 -0.09375q-0.15625 -0.109375 -0.28125 -0.34375q-0.125 -0.25 -0.203125 -0.640625q-0.078125 -0.390625 -0.078125 -0.96875q0 -0.5625 0.0625 -0.96875q0.0625 -0.40625 0.171875 -0.640625q0.125 -0.25 0.265625 -0.34375q0.15625 -0.109375 0.34375 -0.109375l6.515625 0l0 -7.046875q0 -0.203125 0.109375 -0.375q0.125 -0.1875 0.375 -0.296875q0.25 -0.125 0.65625 -0.1875q0.421875 -0.0625 1.046875 -0.0625q0.625 0 1.03125 0.0625q0.421875 0.0625 0.671875 0.1875q0.25 0.109375 0.34375 0.296875q0.109375 0.171875 0.109375 0.375l0 7.046875l6.546875 0q0.171875 0 0.328125 0.109375q0.15625 0.09375 0.265625 0.34375q0.109375 0.234375 0.171875 0.640625q0.0625 0.40625 0.0625 0.96875z" fill-rule="nonzero"/>
</g></svg>