<svg version="1.1" width="40" height="40" viewBox="0 0 96 96" fill="none" xmlns:xlink="http://www.w3.org/1999/xlink" xmlns="http://www.w3.org/2000/svg">
  <path fill="#005895" opacity="1.000000" stroke="none" d="M 79 95 C 75.307 95 71.614 95 67.3 94.622 C 64.743 93.973 62.724 93.965 60.887 93.384 C 53.224 90.962 45.615 88.368 37.801 85.554 C 29.828 80.098 21.486 75.585 14.37 69.612 C -0.13 57.44 -1.641 40.018 12.413 26.795 C 20.474 19.21 29.553 13.548 39.361 8.086 C 45.94 5.767 51.991 2.564 58.391 1.534 C 65.799 0.342 73.515 1.061 80.754 1.099 C 72.652 4.195 64.756 6.828 57.168 10.164 C 45.122 15.46 33.415 21.398 24.216 31.25 C 16.869 39.118 14.497 49.484 19.595 56.687 C 23.095 61.632 27.407 66.317 32.237 69.947 C 47.153 81.161 64.708 87.527 82.501 92.69 C 81.418 93.446 79.934 94.553 79 95 Z"/>
  <path fill="#0066AD" opacity="1.000000" stroke="none" d="M 82.436 88.777 C 82.436 88.777 82.774 90.668 82.488 92.767 C 64.159 88.186 47.153 81.161 32.237 69.947 C 27.407 66.317 23.095 61.632 19.595 56.687 C 14.497 49.484 16.869 39.118 24.216 31.25 C 33.415 21.398 45.122 15.46 57.168 10.164 C 64.756 6.828 72.652 4.195 80.754 1.099 C 85.884 3.694 81.554 5.252 80.152 7.527 C 68.003 15.226 55.814 22.348 44.065 30.134 C 40.204 32.692 37.069 36.679 34.343 40.536 C 30.823 45.514 32.355 52.301 36.957 57.509 C 43.624 65.055 51.981 70.26 60.561 75.21 C 66.81 78.815 73.061 82.419 79.886 86.477 C 81.157 86.96 82.07 88.253 82.436 88.777 Z"/>
  <path fill="#B79F74" opacity="1.000000" stroke="none" d="M 74.035 21.226 C 80.44 19.443 87.094 18.193 91.184 24.981 C 93.346 28.571 94.675 33.174 94.807 37.369 C 95.082 46.109 95.404 55.107 93.663 63.579 C 91.924 72.037 86.683 76.211 74.337 72.646 C 67.92 67.236 61.622 62.692 56.054 57.383 C 49.809 51.427 49.12 44.754 54.606 38.371 C 59.172 33.058 65.11 28.922 70.447 24.272 C 71.63 23.241 72.838 22.241 74.035 21.226 Z"/>
  <path fill="#A08A61" opacity="1.000000" stroke="none" d="M 73.936 21.31 C 73.113 22.405 71.63 23.241 70.447 24.272 C 65.11 28.922 59.172 33.058 54.606 38.371 C 49.12 44.754 49.809 51.427 56.054 57.383 C 61.622 62.692 68.249 67.456 74.295 72.665 C 62.27 69.774 52.092 62.887 44.614 52.941 C 41.35 48.601 42.785 42.054 47.657 36.917 C 54.791 29.395 63.844 24.614 73.936 21.31 Z"/>
</svg>
