<?xml version="1.0" encoding="UTF-8" standalone="no"?>
<svg
   xmlns:dc="http://purl.org/dc/elements/1.1/"
   xmlns:cc="http://creativecommons.org/ns#"
   xmlns:rdf="http://www.w3.org/1999/02/22-rdf-syntax-ns#"
   xmlns:svg="http://www.w3.org/2000/svg"
   xmlns="http://www.w3.org/2000/svg"
   version="1.1"
   x="0px"
   y="0px"
   viewBox="0 0 1000 1000"
   enable-background="new 0 0 1000 1000"
   xml:space="preserve"
   >
   
<path fill="#0067b1" d="m 342,591 c -77,77 -155,155 -233,233 -0,-48 0,-97 -0,-146 C 106,647 73,628 46,636 22,641 9,666 12,688 c 0,89 -0,178 0,267 -3,24 21,36 42,34 68,1 137,0 206,0 20,-0 42,1 62,-1 37,-10 46,-73 9,-90 -19,-8 -41,-3 -62,-4 -31,0 -62,0 -93,0 78,-78 156,-156 234,-234 -23,-23 -46,-46 -69,-69 z"/>
<path fill="#0067b1" d="m 658,591 c 77,77 155,155 233,233 0,-48 -0,-97 0,-146 1,-29 34,-48 62,-40 23,4 37,29 34,52 -0,89 0,178 -0,267 3,24 -21,36 -42,34 -68,1 -137,0 -206,0 -20,-0 -42,1 -62,-1 -37,-10 -46,-73 -9,-90 19,-8 41,-3 62,-4 31,0 62,0 93,0 -78,-78 -156,-156 -234,-234 23,-23 46,-46 69,-69 z" />
<path fill="#0067b1" d="M 341,409 C 264,331 186,253 109,176 c -0,48 0,97 -0,146 -1,29 -34,48 -62,40 -23,-4 -37,-29 -34,-52 0,-89 -0,-178 0,-267 -3,-24 21,-36 42,-34 68,-1 137,-0 206,-0 20,0 42,-1 62,1 37,10 46,73 9,90 -19,8 -41,3 -62,4 -31,0 -62,0 -93,0 78,78 155,156 233,234 -23,23 -46,46 -69,69 z" />
<path fill="#0067b1" d="m 658,409 c 77,-77 155,-155 233,-233 0,48 -0,97 0,146 1,29 34,48 62,40 23,-4 37,-29 34,-52 -0,-89 0,-178 -0,-267 3,-24 -21,-36 -42,-34 -68,-1 -137,-0 -206,-0 -20,0 -42,-1 -62,1 -37,10 -46,73 -9,90 19,8 41,3 62,4 31,0 62,0 93,0 -78,78 -156,156 -234,234 23,23 46,46 69,69 z"/>
</svg>
